<?xml version="1.0" encoding="UTF-8" standalone="no"?>
<!-- Created with Inkscape (http://www.inkscape.org/) -->

<svg
   width="512"
   height="512"
   viewBox="0 0 512 512"
   version="1.1"
   id="svg1"
   inkscape:version="1.4.3 (0d15f75042, 2025-12-25)"
   sodipodi:docname="icon.svg"
   xmlns:inkscape="http://www.inkscape.org/namespaces/inkscape"
   xmlns:sodipodi="http://sodipodi.sourceforge.net/DTD/sodipodi-0.dtd"
   xmlns="http://www.w3.org/2000/svg"
   xmlns:svg="http://www.w3.org/2000/svg">
  <sodipodi:namedview
     id="namedview1"
     pagecolor="#ffffff"
     bordercolor="#000000"
     borderopacity="0.25"
     inkscape:showpageshadow="2"
     inkscape:pageopacity="0.0"
     inkscape:pagecheckerboard="0"
     inkscape:deskcolor="#d1d1d1"
     inkscape:document-units="px"
     inkscape:zoom="1.1352378"
     inkscape:cx="165.60406"
     inkscape:cy="228.14602"
     inkscape:window-width="1720"
     inkscape:window-height="1412"
     inkscape:window-x="0"
     inkscape:window-y="0"
     inkscape:window-maximized="0"
     inkscape:current-layer="layer1"
     showgrid="false"
     inkscape:lockguides="true">
    <inkscape:grid
       id="grid1"
       units="px"
       originx="0"
       originy="0"
       spacingx="1"
       spacingy="1"
       empcolor="#0099e5"
       empopacity="0.30196078"
       color="#0099e5"
       opacity="0.14901961"
       empspacing="5"
       enabled="true"
       visible="false" />
  </sodipodi:namedview>
  <defs
     id="defs1" />
  <g
     inkscape:label="Ebene 1"
     inkscape:groupmode="layer"
     id="layer1">
    <circle
       style="fill:#5433d3;stroke-width:20;fill-opacity:1;stroke:#98a0ff;stroke-opacity:1;stroke-dasharray:none"
       id="path13"
       cx="256"
       cy="256"
       r="217.69344" />
    <path
       d="m 266.09181,127.97836 c -3.60162,0.0763 -7.19591,0.37778 -10.79336,0.56725 -3.61575,0.37605 -7.2408,0.67162 -10.84713,1.1293 -10.63913,1.35019 -21.18156,3.44172 -31.4173,6.6821 -3.25762,1.03127 -6.49884,2.13819 -9.65019,3.459 -2.84393,1.19196 -5.53808,2.71183 -8.30752,4.06789 -2.42559,1.55853 -4.93673,2.99122 -7.2771,4.67505 -6.84026,4.92133 -12.80545,10.9278 -17.93169,17.60034 -1.66218,2.16358 -3.30046,4.35874 -4.69932,6.70118 -1.285,2.15181 -2.21947,4.49545 -3.32891,6.74282 -2.4568,5.92008 -3.74636,8.68534 -5.71586,14.82655 -3.04789,9.5038 -4.99941,19.38361 -6.12352,29.28882 -0.10936,1.89955 -0.27267,3.79661 -0.32786,5.69852 -0.1923,6.6267 0.45233,13.26593 1.3045,19.82772 0.32053,3.39001 0.87199,6.75102 1.14664,10.14631 l 11.99031,5.69505 c -0.83836,-3.3699 -1.28441,-6.8429 -1.8492,-10.27122 -1.10964,-6.62385 -1.97169,-13.31806 -2.03134,-20.04455 -0.017,-1.91455 0.0627,-3.82925 0.0937,-5.74362 0.58962,-9.97241 2.34435,-19.8561 5.36718,-29.3825 2.09768,-6.61079 3.00952,-8.35325 5.69679,-14.68604 1.12723,-2.20872 2.12383,-4.49013 3.38268,-6.62659 5.53996,-9.40214 13.27115,-17.69519 22.11927,-24.0656 2.3075,-1.66133 4.7898,-3.06333 7.18516,-4.59525 2.69818,-1.35617 5.32797,-2.86042 8.09589,-4.06789 12.79233,-5.58053 26.66781,-8.43811 40.4534,-10.17407 3.59116,-0.45222 7.20124,-0.73548 10.80203,-1.10327 3.59421,-0.17019 7.18513,-0.454 10.78294,-0.51 15.73662,-0.24494 50.23755,2.45559 62.52754,29.45361 5.08312,13.3768 7.60784,27.57547 9.24253,41.74749 0.29647,2.57032 0.50553,5.14967 0.75806,7.72467 1.01963,12.65057 1.35459,25.35696 0.91766,38.04042 -0.31892,5.77083 -0.61711,11.57389 -1.95675,17.21177 -0.93993,2.73642 -1.82493,5.49196 -2.38349,8.33355 -0.45703,1.91728 -0.99183,3.8103 -1.34614,5.75055 l 11.57745,6.14088 c 0.28984,-1.95259 0.73451,-3.87177 1.23165,-5.78179 0.50991,-2.8584 1.40328,-5.5979 2.27419,-8.36303 0.24631,-1.36848 0.47064,-2.47856 0.60716,-3.88228 0.45272,-4.65499 0.36789,-9.34881 0.52908,-14.01644 0.081,-12.86561 -0.6042,-25.74281 -1.6445,-38.56258 -0.28503,-2.60362 -0.53203,-5.21224 -0.85521,-7.81139 -1.76187,-14.16948 -4.47699,-28.27921 -8.82967,-41.89147 -0.94033,-2.21263 -1.7682,-4.47719 -2.82064,-6.63873 -9.41926,-19.34567 -30.79625,-26.99372 -39.45768,-29.37035 -9.0667,-2.48785 -18.37437,-3.4957 -27.74492,-3.81116 -3.58022,-0.12053 -7.16509,-0.18684 -10.74652,-0.11102 z"
       style="fill:#ffffff;stroke-width:0.888171"
       id="path14"
       sodipodi:nodetypes="ccssscssscscsccccscscsscsscscsccccccccsccscssscc" />
    <path
       style="fill:#ffffff;fill-opacity:1;stroke-width:0.974439"
       id="path8"
       d="m 163.17331,261.77162 c -0.26518,-0.0404 -0.53706,-0.0444 -0.79556,-0.12111 -0.68874,-0.20493 -1.33074,-0.57898 -2.00784,-0.82902 -1.29093,-0.4767 -2.60754,-0.87362 -3.92094,-1.2602 -3.16988,-0.8101 -6.24228,-2.00342 -9.43751,-2.69869 -2.72415,-0.60652 -5.59775,-0.79663 -8.35931,0.006 -0.74063,0.21537 -1.45456,0.55949 -2.18184,0.83922 -6.74767,3.00178 -11.90746,8.65691 -16.94968,14.67064 -4.36008,6.11287 -7.48253,12.34492 -9.0825,20.15521 -1.06701,5.20864 -1.00702,7.20926 -1.32918,12.46613 0.65899,5.32255 0.6672,7.93135 2.52231,12.85425 1.48247,3.93401 3.97452,7.98536 6.43519,11.08237 4.78505,6.02252 13.02091,11.79765 17.81981,15.77319 1.5998,0.92286 3.14881,1.97605 4.79941,2.7686 1.73669,0.8339 3.54148,1.46933 5.34159,2.10076 5.05091,1.77172 10.28627,3.07675 15.55838,3.69319 1.50852,0.17645 3.02996,0.21575 4.54496,0.32349 4.00738,0.27372 14.83405,0.54987 11.85852,0.13084 l -10.73453,-9.88324 v 0 c -3.33698,0.30724 -6.67884,0.59612 -10.01484,0.40443 -1.45985,-0.097 -2.926,-0.12529 -4.37959,-0.291 -6.78626,-0.77355 -14.33709,-2.81817 -20.53952,-6.02698 -1.60751,-0.83166 -3.11629,-1.90205 -4.67443,-2.85307 1.58712,1.45328 2.80404,3.7911 4.76133,4.35982 1.76946,0.51414 -2.85631,-2.66272 -4.14257,-4.18002 -3.92369,-4.62853 -6.9876,-10.12894 -8.39454,-16.61873 -0.44387,-2.04742 -0.57084,-4.18771 -0.85625,-6.28156 0.22372,-5.0243 0.11933,-7.2024 1.15734,-12.16765 1.5192,-7.26694 4.78018,-13.79248 9.01197,-19.3279 0.9717,-1.12868 1.91456,-2.29442 2.91509,-3.38608 4.1025,-4.47616 8.75771,-8.33611 14.07207,-10.25013 0.70837,-0.19804 1.40921,-0.45042 2.12511,-0.59413 2.74572,-0.55123 5.50457,-0.16514 8.17674,0.46545 3.15837,0.80565 6.25559,1.86317 9.38928,2.77845 2.33916,0.78786 4.62822,1.756 6.99563,2.43133 z"
       sodipodi:nodetypes="ccsccsccscsscssscccscsscssscscscccccc" />
    <path
       style="fill:#ffffff;fill-opacity:1;stroke-width:0.921824"
       id="path9"
       d="m 168.54389,267.7183 c -1.30004,5.32354 -1.83484,10.79333 -2.46269,16.23213 -1.27024,9.94781 -1.73748,19.95374 -1.79356,29.96764 0.26402,7.7165 0.38783,15.45125 0.81549,23.15724 0.20333,2.42994 0.22468,4.91607 0.9942,7.23416 0.39926,1.20276 0.78929,1.88907 1.34382,3.00356 3.69016,2.26353 4.78246,6.11768 11.2994,6.65041 -2.04693,-2.95987 -2.39172,-6.42547 -2.86631,-9.89378 -0.89565,-7.78358 -1.09157,-15.66324 -1.54798,-23.49141 -0.003,-4.66921 -0.061,-5.97643 0.16726,-10.65489 0.3095,-6.34238 1.05226,-12.64817 1.87312,-18.94106 0.7231,-5.21079 1.37317,-10.53044 3.1476,-15.48796 z"
       sodipodi:nodetypes="ccccsccccsccc" />
    <path
       style="fill:#ffffff;fill-opacity:1;stroke-width:0.974439"
       id="path8-8"
       d="m 343.52086,281.0699 c 0.26605,0.0342 0.52854,0.10509 0.79816,0.10254 0.71855,-0.007 1.43871,-0.19032 2.15847,-0.24431 1.37228,-0.10296 2.74729,-0.12214 4.11636,-0.13227 3.27041,0.0937 6.5526,-0.20778 9.81578,0.004 2.78587,0.16676 5.60079,0.77497 8.03463,2.30711 0.65274,0.41092 1.24437,0.93826 1.86656,1.40738 5.66075,4.74316 9.0646,11.60013 12.25671,18.76945 2.50904,7.07686 3.79546,13.92766 3.18378,21.87665 -0.40793,5.30113 -1.01629,7.20796 -2.15356,12.35043 -2.09861,4.93555 -2.8246,7.44132 -5.96311,11.66342 -2.50806,3.37398 -6.01902,6.58287 -9.23712,8.88293 -6.25794,4.47275 -15.76531,7.7578 -21.47313,10.25883 -1.79202,0.44686 -3.57109,1.03298 -5.37609,1.34058 -1.89914,0.32365 -3.80912,0.43775 -5.71349,0.54929 -5.34349,0.31298 -10.73582,0.12652 -15.97395,-0.73203 -1.49881,-0.24561 -2.9723,-0.62661 -4.45843,-0.94005 -3.92793,-0.83992 -14.41237,-3.55456 -11.43645,-3.13837 l 13.04034,-6.54686 v 0 c 3.12352,1.2139 6.25677,2.41149 9.51666,3.14547 1.43017,0.30858 2.84746,0.68495 4.2905,0.92576 6.73705,1.1243 14.55899,1.23708 21.40507,-0.14051 1.77433,-0.35705 3.51946,-0.97079 5.27919,-1.45618 -1.92583,0.96027 -3.73925,2.87281 -5.77748,2.88081 -1.84263,0.007 3.47891,-1.77364 5.13313,-2.87828 5.04615,-3.3697 9.50574,-7.81427 12.6447,-13.66609 0.99028,-1.84615 1.70148,-3.86882 2.55222,-5.80322 1.1679,-4.8918 1.86779,-6.95702 2.23661,-12.01619 0.53976,-7.40438 -0.79904,-14.57546 -3.34371,-21.06187 -0.62347,-1.35255 -1.20904,-2.73279 -1.87043,-4.05768 -2.71192,-5.4325 -6.12483,-10.42473 -10.70704,-13.72762 -0.6265,-0.38538 -1.23079,-0.82092 -1.87949,-1.15614 -2.48791,-1.28571 -5.24647,-1.67393 -7.98899,-1.80323 -3.25813,-0.0948 -6.52679,0.0693 -9.79136,0.0867 -2.46567,0.11356 -4.93279,0.41422 -7.39463,0.41181 z"
       sodipodi:nodetypes="ccsccsccscsscssscccscsscssscscscccccc" />
    <path
       style="fill:#ffffff;fill-opacity:1;stroke-width:0.921824"
       id="path9-9"
       d="m 336.72087,285.30856 c -0.21552,5.47573 -1.20698,10.88143 -2.10046,16.28296 -1.51705,9.91318 -3.82206,19.66119 -6.52454,29.30369 -2.37786,7.34575 -4.62594,14.74762 -7.1582,22.03822 -0.86434,2.28011 -1.56919,4.66432 -2.94705,6.68105 -0.71491,1.0464 -1.27879,1.59884 -2.11868,2.51764 -4.17065,1.16035 -6.28165,4.56494 -12.69347,3.28326 2.78258,-2.28211 4.06798,-5.51892 5.47892,-8.72262 3.00354,-7.23636 5.36084,-14.75771 7.95437,-22.15785 1.28798,-4.48805 1.70374,-5.72876 2.77205,-10.28934 1.44824,-6.18256 2.46988,-12.44922 3.4129,-18.72496 0.73914,-5.20855 1.57846,-10.50163 1.23718,-15.75606 z"
       sodipodi:nodetypes="ccccsccccsccc" />
  </g>
</svg>
